<svg width="241" height="27" viewBox="0 0 241 27" fill="none" xmlns="http://www.w3.org/2000/svg">
<path d="M127.197 13.2451C127.197 8.23513 131.069 4.16016 136.445 4.16016C139.858 4.16016 142.741 5.97558 144.291 8.76495L142.647 9.70773C141.463 7.45598 139.235 5.95221 136.445 5.95221C132.012 5.95221 129.129 9.24803 129.129 13.2451C129.129 17.2421 132.152 20.538 136.344 20.538C140.536 20.538 142.858 17.8966 143.294 14.4606H136.196V12.6685H145.25V13.1983C145.25 18.068 142.079 22.33 136.336 22.33C131.202 22.33 127.181 18.2628 127.181 13.2451H127.197Z" fill="#333D47"/>
<path d="M146.637 16.3234V4.41016H148.522V16.4247C148.522 18.6765 150.291 20.5386 152.636 20.5386C154.981 20.5386 156.774 18.6765 156.774 16.4247V4.41016H158.659V16.3234C158.659 19.7127 156.096 22.3307 152.628 22.3307C149.161 22.3307 146.621 19.7127 146.621 16.3234H146.637Z" fill="#333D47"/>
<path d="M160.825 4.41016H162.711V22.0892H160.825V4.41016Z" fill="#333D47"/>
<path d="M164.962 4.41016H169.902C175.403 4.41016 179.104 8.2358 179.104 13.2535C179.104 18.2713 175.177 22.0892 169.972 22.0892H164.962V4.41016ZM166.848 6.15546V20.3205H169.824C174.11 20.3205 177.164 17.2662 177.164 13.2458C177.164 9.22533 174.304 6.14767 169.754 6.14767H166.848V6.15546Z" fill="#333D47"/>
<path d="M180.608 4.41016H191.337V6.20221H182.501V12.3264H191.337V14.1184H182.501V20.2659H191.337V22.0814H180.608V4.41016Z" fill="#333D47"/>
<path d="M198.879 8.36756H194.477V4.42505H207.348V8.36756H202.993V22.0885H198.879V8.36756ZM208.992 4.42505H213.223L217.695 10.6193L222.339 4.42505H226.329V22.0885H222.121V11.2037L217.672 17.2032L213.2 11.1803V22.0885H208.992V4.42505ZM227.451 19.1355L231.151 16.2292C231.977 17.6083 233.232 18.3797 234.541 18.3797C235.85 18.3797 236.621 17.5538 236.621 16.6889C236.621 15.5981 235.071 15.2631 233.356 14.7566C231.035 14.0788 228.3 13.0892 228.3 9.57525C228.3 6.50539 230.816 4.15234 234.447 4.15234C237.572 4.15234 239.379 5.43795 240.735 6.9573L237.346 9.54409C236.691 8.47665 235.655 7.82995 234.463 7.82995C233.271 7.82995 232.554 8.48444 232.554 9.30255C232.554 10.37 234.081 10.7284 235.819 11.266C238.187 11.9906 241 13.0581 241 16.5643C241 19.5874 238.655 22.3456 234.541 22.3456C231.011 22.3456 229.001 20.8418 227.451 19.1277V19.1355Z" fill="#333D47"/>
<path d="M17.2894 8.8356H10.3004V0H25.7432C26.1562 0 26.499 0.335036 26.499 0.740196V16.1908H17.6634V9.2018C17.6634 8.99922 17.492 8.82781 17.2894 8.82781V8.8356ZM9.20959 17.6712C8.99922 17.6712 8.8356 17.5076 8.8356 17.2972V0L0.218163 8.51615C0.0857069 8.64861 0 8.8356 0 9.04597V25.7666C0 26.1796 0.335036 26.5068 0.755779 26.5068H17.3595C17.5699 26.5068 17.7569 26.4211 17.8894 26.2886L26.5068 17.6712H9.20959Z" fill="url(#paint0_linear_2962_7594)"/>
<path d="M34.4931 19.1354L38.2019 16.2292C39.0278 17.6083 40.2823 18.3875 41.5912 18.3875C42.9002 18.3875 43.6716 17.5616 43.6716 16.6889C43.6716 15.5981 42.1211 15.2631 40.3991 14.7488C38.0773 14.0709 35.3346 13.0814 35.3346 9.56744C35.3346 6.48978 37.8513 4.14453 41.4899 4.14453C44.6144 4.14453 46.4298 5.43013 47.7855 6.95728L44.3962 9.55186C43.7417 8.48442 42.6976 7.82993 41.5133 7.82993C40.329 7.82993 39.5966 8.48442 39.5966 9.31032C39.5966 10.3778 41.1237 10.7362 42.869 11.2738C45.2455 11.9984 48.0504 13.0658 48.0504 16.5798C48.0504 19.6107 45.7052 22.3689 41.5834 22.3689C38.0461 22.3689 36.0359 20.8652 34.4854 19.151L34.4931 19.1354Z" fill="#333D47"/>
<path d="M58.9508 15.2793H53.8629V22.0814H49.6243V4.41016H53.8629V11.1187H58.9508V4.41016H63.166V22.0892H58.9508V15.2871V15.2793Z" fill="#333D47"/>
<path d="M65.0515 4.41016H69.3135V22.0892H65.0515V4.41016Z" fill="#333D47"/>
<path d="M71.1757 4.41016H77.2063C81.3514 4.41016 83.985 7.33977 83.985 10.8771C83.985 14.4145 81.367 17.4376 77.183 17.4376H75.4143V22.0892H71.1757V4.41016ZM75.4143 8.25918V13.5185H77.0349C78.5621 13.5185 79.6996 12.4744 79.6996 10.9005C79.6996 9.32662 78.5621 8.25918 77.0349 8.25918H75.4143Z" fill="#333D47"/>
<path d="M85.6056 4.41016H91.6362C95.7813 4.41016 98.4149 7.33977 98.4149 10.8771C98.4149 14.4145 95.7969 17.4376 91.6129 17.4376H89.8442V22.0892H85.6056V4.41016ZM89.8442 8.25918V13.5185H91.4648C92.992 13.5185 94.1295 12.4744 94.1295 10.9005C94.1295 9.32662 92.992 8.25918 91.4648 8.25918H89.8442Z" fill="#333D47"/>
<path d="M100.036 4.41016H110.523V8.33709H104.251V11.2433H110.523V15.1703H104.251V18.17H110.523V22.0969H100.036V4.41016Z" fill="#333D47"/>
<path d="M112.237 4.41016H118.221C122.483 4.41016 124.883 7.14499 124.883 10.4876C124.883 12.7627 123.862 14.8742 121.712 15.8637L125.389 22.0892H120.621L116.452 14.4846V22.0892H112.237V4.41016ZM116.452 8.28255V12.9341H117.902C119.694 12.9341 120.59 11.7732 120.59 10.5343C120.59 9.07729 119.67 8.28255 117.902 8.28255H116.452Z" fill="#333D47"/>
<defs>
<linearGradient id="paint0_linear_2962_7594" x1="0.194788" y1="26.2575" x2="26.2575" y2="0.194788" gradientUnits="userSpaceOnUse">
<stop offset="0.15" stop-color="#00D7D7"/>
<stop offset="1" stop-color="#84F11E"/>
</linearGradient>
</defs>
</svg>